<?xml version="1.0" encoding="utf-8"?>
<!-- Generator: Adobe Illustrator 27.0.0, SVG Export Plug-In . SVG Version: 6.00 Build 0)  -->
<svg version="1.1" id="圖層_1" xmlns="http://www.w3.org/2000/svg" xmlns:xlink="http://www.w3.org/1999/xlink" x="0px" y="0px"
	 viewBox="0 0 256 256" style="enable-background:new 0 0 256 256;" xml:space="preserve">
<style type="text/css">
	.st0{fill:#FFFFFF;}
	.st1{fill-rule:evenodd;clip-rule:evenodd;fill:#FFFFFF;}
</style>
<path class="st0" d="M203.6,0H52.4C23.6,0,0,23.6,0,52.4v151.2C0,232.4,23.6,256,52.4,256h151.2c28.8,0,52.4-23.6,52.4-52.4V52.4
	C256,23.6,232.5,0,203.6,0z M207.7,157.2c-0.4,0.7-1,1.4-1.7,2.2l-0.1,0.1c-3,3.6-6.5,7-10.2,10.2c-26,24-68.7,52.6-74.4,48.2
	c-4.9-3.8,8.1-22.6-6.9-25.7c-1-0.1-2.1-0.2-3.1-0.4h0l0,0c-44-6.2-77.4-37-77.4-74c0-41.5,42-75.2,93.9-75.2l0,0
	c51.9,0,93.9,33.7,93.9,75.2C221.7,132.1,216.6,145.7,207.7,157.2z"/>
<path class="st1" d="M73.3,141.6h18.9c2.7,0,4.9-2.2,4.9-4.9v-0.4c0-2.7-2.2-4.9-4.9-4.9H78.6v-31c0-2.7-2.2-4.9-4.9-4.9h-0.4
	c-2.7,0-4.9,2.2-4.9,4.9v36.3C68.4,139.4,70.6,141.6,73.3,141.6z M190.7,118.8v-0.4c0-2.7-2.2-4.9-4.9-4.9h-13.6v-7.8h13.6
	c2.7,0,4.9-2.2,4.9-4.9v-0.4c0-2.7-2.2-4.9-4.9-4.9h-18.9c-2.7,0-4.9,2.2-4.9,4.9v36.3c0,2.7,2.2,4.9,4.9,4.9h18.9
	c2.7,0,4.9-2.2,4.9-4.9v-0.4c0-2.7-2.2-4.9-4.9-4.9h-13.6v-7.8h13.6C188.5,123.7,190.7,121.5,190.7,118.8L190.7,118.8z M154.2,140.1
	L154.2,140.1c0.9-0.9,1.4-2.2,1.4-3.4v-36.3c0-2.7-2.2-4.9-4.9-4.9h-0.4c-2.7,0-4.9,2.2-4.9,4.9v21.3L127.8,98
	c-0.8-1.5-2.4-2.5-4.2-2.5h-0.4c-2.7,0-4.9,2.2-4.9,4.9v36.3c0,2.7,2.2,4.9,4.9,4.9h0.4c2.7,0,4.9-2.2,4.9-4.9V115l17.8,24.4
	c0.1,0.2,0.2,0.3,0.4,0.5l0,0c0.5,0.7,1.2,1.1,1.9,1.4c0.6,0.2,1.2,0.4,1.9,0.4h0.4c0.8,0,1.6-0.2,2.3-0.6
	C153.6,140.8,154,140.5,154.2,140.1L154.2,140.1z M106,141.6h0.4c2.7,0,4.9-2.2,4.9-4.9v-36.3c0-2.7-2.2-4.9-4.9-4.9H106
	c-2.7,0-4.9,2.2-4.9,4.9v36.3C101.1,139.4,103.3,141.6,106,141.6L106,141.6z"/>
</svg>
