<?xml version="1.0" encoding="utf-8"?>
<!-- Generator: Adobe Illustrator 27.0.0, SVG Export Plug-In . SVG Version: 6.00 Build 0)  -->
<svg version="1.1" id="圖層_1" xmlns="http://www.w3.org/2000/svg" xmlns:xlink="http://www.w3.org/1999/xlink" x="0px" y="0px"
	 viewBox="0 0 256 256" style="enable-background:new 0 0 256 256;" xml:space="preserve">
<style type="text/css">
	.st0{fill:#FFFFFF;}
</style>
<path class="st0" d="M203.6,0H52.4C23.6,0,0,23.6,0,52.4v151.2C0,232.4,23.6,256,52.4,256h75.9v-97.1h-27.7v-42.8h26.9
	c0-12.7,0.1-23.9,0-35.6c0-33.7,25.9-43.5,49.1-43.5h39.2h0v42.3c-3.3,0-16.1,0-22.7,0c-0.8,0-14.7-0.8-14.7,12.6
	c0.1,5.4,0,24.2,0,24.2h37.5l-3,42.1h-33.6V256h24.4c28.8,0,52.4-23.6,52.4-52.4V52.4C256,23.6,232.4,0,203.6,0z"/>
</svg>
