<?xml version="1.0" encoding="utf-8"?>
<!-- Generator: Adobe Illustrator 27.0.0, SVG Export Plug-In . SVG Version: 6.00 Build 0)  -->
<svg version="1.1" id="圖層_1" xmlns="http://www.w3.org/2000/svg" xmlns:xlink="http://www.w3.org/1999/xlink" x="0px" y="0px"
	 viewBox="0 0 64 64" style="enable-background:new 0 0 64 64;" xml:space="preserve">
<style type="text/css">
	.st0{fill:#FFFFFF;}
</style>
<path class="st0" d="M64,28.6c0,1.2,0,2.3,0,3.5c0,0.2-0.1,0.3-0.1,0.5c-0.3,4.2-1.6,8.2-3.9,11.8c-6,9.3-14.8,13.8-25.6,14.7
	c-5.1,0.4-10.1-0.4-14.9-2.2c-0.2-0.1-0.6-0.1-0.8,0.1c-0.9,0.4-1.8,0.9-2.7,1.3c-4.6,2-9.3,3.3-14.2,4.1c-0.6,0.1-1.1,0.1-1.4-0.5
	c-0.3-0.5,0-1,0.3-1.4c0.6-0.9,1.3-1.7,1.8-2.7c1.6-3.1,2.2-6.5,2.7-10c0.1-1,0.2-1.8-0.4-2.8C0.2,38.3-1.1,31.1,1,23.5
	C3.1,16,7.8,10.4,14.4,6.4c6.7-4,14-5.4,21.7-4.6c7.5,0.9,14,3.8,19.4,9c4.1,3.9,6.8,8.6,8,14.2C63.7,26.2,63.8,27.4,64,28.6z
	 M17,34.7c2.4,0,4.3-1.9,4.3-4.2c0-2.3-1.9-4.3-4.2-4.3c-2.3,0-4.2,1.9-4.3,4.2C12.8,32.6,14.7,34.6,17,34.7z M46.9,34.7
	c2.4,0.1,4.3-1.8,4.3-4.2c0-2.3-1.9-4.3-4.2-4.3c-2.3,0-4.2,1.8-4.3,4.2C42.6,32.6,44.5,34.6,46.9,34.7z M32,34.7
	c2.3,0,4.3-1.9,4.3-4.2c0-2.3-1.9-4.3-4.2-4.3c-2.3,0-4.3,1.9-4.3,4.3C27.8,32.7,29.7,34.6,32,34.7z"/>
</svg>
