<?xml version="1.0" encoding="utf-8"?>
<!-- Generator: Adobe Illustrator 27.0.0, SVG Export Plug-In . SVG Version: 6.00 Build 0)  -->
<svg version="1.1" id="Layer_1" xmlns="http://www.w3.org/2000/svg" xmlns:xlink="http://www.w3.org/1999/xlink" x="0px" y="0px"
	 viewBox="0 0 6000 2300" style="enable-background:new 0 0 6000 2300;" xml:space="preserve">
<style type="text/css">
	.st0{fill:#DDE0E8;}
	.st1{fill:#C5C9DD;}
	.st2{fill:#AAAEC1;}
	.st3{fill:#868AA5;}
	.st4{fill:#3E4168;}
	.st5{fill:#1E2138;}
	.st6{opacity:0.27;fill:#FFFFFF;}
	.st7{opacity:6.000000e-02;}
	.st8{opacity:0.15;fill:#005F89;}
	.st9{opacity:0.1;}
	.st10{opacity:0.16;fill:#FFFFFF;}
	.st11{opacity:0.1;fill:#FFFFFF;}
	.st12{opacity:0.15;}
	.st13{opacity:0.26;fill:#FFFFFF;}
</style>
<rect class="st0" width="6000" height="2300"/>
<path class="st1" d="M6000,757.7V2300H0V945.9l116.6-62.3l34.2-19.5l64.5-36.8l40.7-39.1l36.1-58.2c0,0,71-57.1,80.3-65
	c0,0,0,0,0.1-0.1c1.1-0.9,3.2-2.9,6.2-5.8c16-15.5,55.6-55.3,78.4-78.5c9.4-9.5,16-16.2,16.9-17.3c3.6-3.9,60.6-53.8,60.6-53.8
	L605,447l118.1-57.4l88.5-44.4l85.6-38.1l61.5-32.4c0,0,62.6-21.9,67.3-23.5c4.7-1.6,46.1,37.9,51.7,42.8
	c5.7,4.9,115.8,49.5,115.8,49.5l88.8,46.2l209.4,135l158.9,73.7l159.6,105.9l157.3,101c0,0,160.4-0.4,170-2.6
	c9.5-2.1,284.8-141.7,287-142.8l0,0l85.4,2.1l89.2-88.9l200-84.8l161.6-58.7l82.2,82.2l163.3,132.6l59.9,32.2l21,11.3l122.1,86.9
	l82.2,39.9l49.1,18l171.6-86.1l252.1-43.6l137.6-71.4c0,0,143.9-44.6,152.6-33.1c2.6,3.4,23.3,1.1,51.1-3.9
	C4371,583,4476,556.6,4476,556.6l108.1-7.8l130.9,68.8l40.2,21.1l2.3,0.7l146.1,44.3l125.2,38l251.5-83.4l145.6-84.1l209-56.3
	l77.5,30.5l150.3,126.8L6000,757.7z"/>
<path class="st2" d="M6000,1137.5V2300H0V985.6l139.6-15.2L317,954.1l117.4-54.8l164.9-48.9c0,0,107.7-7,112.2-6
	c4.5,1,121,10.2,121,10.2l103.8-55.5l157.1-37.6l139.3-40.7l120.5,43.9l115.8,75.1l146.7,123.7l110,61.1l148.7,48.5l173.7-14.1
	l159.4-15.2l180.3,4.3c0,0,39.5-30.2,122.1-41.2c82.6-11,159.9-49.8,184.7-48c24.8,1.8,234.8-12.5,234.8-12.5l82.3,49.9l90.3,46.3
	l7.6,3.1l67.1,27.4l196.4,35.6h0l35.4,6.4c0,0,192.4,9.6,197.1,9.6c4.7,0,212.9-63.8,221.6-66.6c8.7-2.8,237-104,237-104l186.3-90.8
	l199.2-14.4l165.5-82.7l119.7,38.4c13,10.5,89.2,62.3,148,102c39.2,26.5,70.7,47.6,70.7,47.6l235.4,13.7l128.9-29.4
	c0,0,112.7-12.5,129.9,1.6c0,0,0,0,0,0c17.4,14.2,111.8,93.1,111.8,93.1l203,46.8l104.9,5.6l3,0.2L6000,1137.5z"/>
<path class="st3" d="M6000,1281.2V2300H0V1208.3l122.1,8.9c0,0,131.5-5.6,319.3-22.1c67.7-5.9,126.5-16.4,174.8-27.6h0.1
	c85.6-19.9,137.8-42.1,146.8-45.1c14.1-4.7,185.1-17,185.1-17s18.2,1.4,43.8,3.5h0c47.1,3.9,119.4,10.4,150.1,15.9
	c47.4,8.4,192-11.8,239.9-5.9c30.6,3.8,108.8-10.8,166.8-23.7h0c32.8-7.3,59.1-14.1,66.8-16.8c21.5-7.5,186.9-63.1,186.9-63.1
	l172-7.7l135.8,45.5l124.1,78.2l81.2,51.2c0,0,215.2,50.3,222.3,52.7c7.1,2.3,357,7.8,357,7.8s1.9-0.3,5.3-0.9
	c43-7,330.8-54.1,337.3-56.2c7-2.4,299.6-96.1,299.6-96.1l108.5-42.1c0,0,149,27.6,160.1,20.8c11-6.8,336.4,103.2,336.4,103.2
	s138.6,0.2,255.2,0.2c82.2,0,153.5,0,157.4-0.2c9.5-0.5,203.4-45.6,206.5-46.3l0,0l171.4,41.8l240.6,35.1l221.9-52.1l150.3,17
	l200.2,49.1L6000,1281.2z"/>
<path class="st4" d="M6000,1514.5V2300H0V1275.6l120.5,54.9l63.5,28.9c0,0,29.5,22.2,184.8,34.9c4.5,0.4,9.2,0.7,13.9,1.1
	c167.5,12.5,179.8,13.2,261.1,10.5c3.4-0.1,6.3-0.2,9-0.3l17.4,4l22-0.6l0,0c14.3,2,39.1,4.7,81.8,8.3
	c175.7,14.9,361.6,7.8,361.6,7.8s151.6-22,179.1-18.8c27.5,3.2,126.1-9.3,141.8-9.3c15.7,0,225.5-71.6,225.5-71.6s30.2-11.1,61-16.7
	c22-4,44.3-5.3,56.3,2.2c28.8,17.9,182.3,76.7,182.3,76.7s74.3,60.7,122.9,70.3c48.5,9.6,95.5,42.4,145.6,64.3
	c43.7,19.1,93.9,25.6,120.5,50.6c3.9,3.7,7.2,7.7,10,12.2c21.9,35.6,70.9,68.3,70.9,68.3l234.5,33.2l266.8,29.8l212.9,42.2
	c0,0,189.4,11,194.1,11c4.7,0,132.8-3.5,132.8-3.5l71.4-44.8l43.2-0.3l20.3-9.4l75-16.5c0,0,43.2-26.6,46.3-26.6
	s35.2,11.7,35.2,11.7l45.4,33.7c0,0,2.7,1.7,6.9,4.4l0,0c14.1,9,45.1,28.8,49.6,31.1c5.9,3,54.1,33.5,62.9,35.8
	c8.7,2.2,60.4,11.5,60.4,11.5s59.4,8.2,61.6,7.2c2.2-1.1,43.6-30.4,43.6-30.4l51.9-23.5l81.8-10.2l51.1-22l0,0l0.7-0.3l1.7-1
	l0.3-0.2h0l46.4-26.6l62.6-14.9l135.4,30.5l37.1,19.4l99.1,19.8c0,0,57.9,18,63.4,19.6c5.5,1.6,206.6,15.1,206.6,15.1l250.6-19.5
	l79-50.4c0,0,0,0,0,0l60.9-1.6l95.5-8.6l2.3-0.8l151.9-53.9l55-24.4l71.6-35.5l54.9-6l15.6-28l135.9-38.4L6000,1514.5z"/>
<path class="st5" d="M6000,1848.3V2300H0v-374.3l185.3,5.8l139.7-21.8c0,0,128.3-16.3,254.8-33.2c125.5-16.8,261-37.7,263.1-38l0,0
	l157.3-84.5c0,0,240.8,8.2,253.6,18.8c12.3,10.1,228.5,22.8,266.1,28.7c1.5,0.2,2.7,0.5,3.6,0.7c23.8,5.5,286,82.2,286,82.2
	s249.6,12.9,266,17.6c16.4,4.7,256.4,9.5,256.4,9.5l172.4-53.1l148-57.3l272-73.5l52.8-46.2l178.4-27.4l183.1-19.6l155,100.9
	l225.4,93.9c0,0,319.3,32.9,392.1,35.2c72.8,2.3,211.3,4.7,286.4,4.7s183.3,9.4,183.3,9.4l368.4-58.7l144.7-84.9l182.3,38.2l159,10
	c0,0,120,27.5,159.4,34.5c39.4,7,178.8,23.1,178.8,23.1l8.2,0.3h0L6000,1848.3z"/>
<path class="st6" d="M1026,251.4l-9.4,43.4l-62.2,25.8l-57.5,9.4c0,0-19.9,34-25.8,39.9c-5.9,5.9-54,25.8-64.6,29.4
	c-10.6,3.5-69.3,9.4-69.3,9.4L605,447l118.1-57.4l88.5-44.4l85.6-38.1l61.5-32.4C958.7,274.8,1021.3,252.9,1026,251.4z"/>
<path class="st6" d="M457,580.6l-81.3,126.2l-62.2,47l-20,37.6l-44.6,27L232.5,843l-81.7,21.1l64.5-36.8l40.7-39.1l36.1-58.2
	c0,0,71-57.1,80.3-65c0,0,0,0,0.1-0.1c1.1-0.9,3.2-2.9,6.2-5.8C394.6,643.7,434.1,603.8,457,580.6z"/>
<path class="st6" d="M1253,600.4l-129.1-43.8c0,0-55.6-19.6-58.7-21.9c-3.1-2.3-68.9-3.1-68.9-3.1l-64.2,40.7
	c0,0-54.8,23.5-62.6,28.2c-7.8,4.7-40.7,7.8-40.7,7.8l-51.7,42.3l-158.1,64.7l97-20.9l90.8-40.7c0,0,56.3-11,61-12.5
	c4.7-1.6,70.4-7.8,75.1-9.4c4.7-1.6,101.7-61,101.7-61l23.5-10.2l29.7,9.4l100.2,29l100.2,29L1253,600.4z"/>
<path class="st6" d="M2424.5,660.1l-36.7,81.2l-144,32.9l-85.3,62.6h-86.9l-104.1-31.3c0,0,160.4-0.4,170-2.6
	C2147,800.8,2422.3,661.2,2424.5,660.1z"/>
<polygon class="st7" points="3266,676.8 3231.4,672.4 3162.6,634.8 3073.4,594.1 3020.1,575.3 3000,504.9 2960.6,429.8 3042.8,512 
	3206.2,644.6 "/>
<polygon class="st6" points="3964.1,703.1 3924.4,732.7 3829.4,757.3 3719,777.3 3663.8,813.7 3540.3,832.8 3712,746.7 "/>
<path class="st6" d="M4584.1,548.8l-51.2,36l-65.7,4.7l-87.6,14.9l-74.1-9.6C4371,583,4476,556.6,4476,556.6L4584.1,548.8z"/>
<polygon class="st6" points="5425.9,554.2 5413.4,598.8 5371.9,639.5 5313.2,650.7 5288.9,679.4 5227.1,702.1 5170,720.9 
	5028.8,721.7 5280.3,638.3 "/>
<polygon class="st6" points="2646,819.5 2760.3,780.4 2793.2,748.4 2850.3,728.7 2910.6,715.2 3092.1,800 2995.9,778 2956,760 
	2888.7,777.3 2822.1,774.9 2760.3,801.5 "/>
<path class="st6" d="M4165.1,799.2c0,0,75.9-55.6,79-57.1c3.1-1.6,50.9-20.3,50.9-20.3l39.9-21.9l30.5,15.7l89.2,30.5l-104.9-15.7
	c0,0-38.3,1.6-39.9,3.1c-1.6,1.6-56.3,33.9-59.5,34.6C4247.3,768.7,4165.1,799.2,4165.1,799.2z"/>
<polygon class="st6" points="619.1,872.3 611.7,897 487.2,921.7 398,928.7 317,954.1 434.4,899.3 599.2,850.4 "/>
<polygon class="st6" points="1232.7,720.9 1085.5,785.9 1027.6,810.1 914.9,825.4 891.4,854.7 832.5,854.7 936.2,799.2 
	1093.3,761.6 "/>
<polygon class="st8" points="1725.7,1024.6 1642.7,1055.1 1551.2,1074.6 1623.3,1030.8 1631,998 1615.7,963.5 "/>
<path class="st6" d="M2929.4,946.3l-234,32.1l-77.5,29.2l-66.5,19.3l-55.6,21.1h-108c0,0,39.5-30.2,122.1-41.2
	c82.6-11,159.9-49.8,184.7-48C2719.3,960.6,2929.4,946.3,2929.4,946.3z"/>
<polygon class="st7" points="3373,1108.7 3325.4,1121.6 3235.4,1107.5 3161,1115.3 3121.9,1069.2 3109.5,1045.6 3176.6,1073.1 "/>
<polygon class="st6" points="4449.6,849 4405.4,992.5 4391.3,900.9 4250.4,863.3 "/>
<path class="st7" d="M4953.6,954.2L4815.4,987l-128.3-28.2h118.2l77.6-52.2C4922.1,933.1,4953.6,954.2,4953.6,954.2z"/>
<path class="st6" d="M5447.8,940.1l-4,10.1h-66.5l-118.2,23.5l-70.2-5.8l128.9-29.4C5317.9,938.5,5430.6,926,5447.8,940.1
	C5447.8,940,5447.8,940.1,5447.8,940.1z"/>
<polygon class="st6" points="5867.5,1085.6 5846.1,1109.9 5760,1101.3 5674,1095.8 5559.6,1033.2 5762.6,1080 "/>
<path class="st6" d="M992,1108.9l-61.1,19.3l-142.1,16.4l-93.9,27l-78.7-4.2c85.6-19.9,137.8-42.1,146.8-45.1
	c14.1-4.7,185.1-17,185.1-17S966.4,1106.8,992,1108.9z"/>
<path class="st6" d="M1802.6,1015.3l-67.5,59.3l-96.7,28.4l-89.5-7.9c32.8-7.3,59.1-14.1,66.8-16.8
	C1637.2,1070.9,1802.6,1015.3,1802.6,1015.3z"/>
<polygon class="st7" points="2315.8,1182.4 2201.1,1237.4 2081.4,1237.4 2205.8,1202.2 2238.7,1150 2234.5,1131.3 "/>
<path class="st6" d="M3645.8,1047.6l-294.2,164l-118.6,17.5l-123.5,12.9h-209.1c43-7,330.8-54.1,337.3-56.2
	c7-2.4,299.6-96.1,299.6-96.1L3645.8,1047.6z"/>
<path class="st6" d="M4761.4,1125.2l-227.7,88.7l-136.2-42.2c82.2,0,153.5,0,157.4-0.2C4564.4,1171,4758.4,1125.9,4761.4,1125.2z"/>
<polygon class="st6" points="5545.6,1167 5459.9,1175.2 5330.8,1214 5173.4,1202.1 5395.4,1150 "/>
<path class="st9" d="M368.8,1394.4L224.6,1408L108,1447.2l25.8-72.8l-13.4-43.8l63.5,28.9C184,1359.5,213.5,1381.7,368.8,1394.4z"/>
<path class="st10" d="M1742.9,1308.8l-241.9,140.7c0,0-92.4-17.2-94.7-18s-105.7,3.9-105.7,3.9l-86.9,10.2l-78.3-20.3
	c0,0,151.6-22,179.1-18.8c27.5,3.2,126.1-9.3,141.8-9.3c15.7,0,225.5-71.6,225.5-71.6S1712.1,1314.5,1742.9,1308.8z"/>
<path class="st9" d="M2451.5,1653.4l-183.4,67.7l102.5-148.1c3.9,3.7,7.2,7.7,10,12.2C2402.5,1620.7,2451.5,1653.4,2451.5,1653.4z"
	/>
<polygon class="st10" points="3702.4,1695.2 3634.5,1718.3 3607.5,1736.7 3563.9,1721.4 3607.1,1721.1 3627.4,1711.7 "/>
<path class="st9" d="M3836.2,1718.5l-39.8-6l-13.3-21.9l-34.4-21.9c3.1,0,35.2,11.7,35.2,11.7l45.4,33.7
	C3829.4,1714,3832,1715.8,3836.2,1718.5z"/>
<path class="st10" d="M4299.1,1717.8l-82.4,43.9l-60.7,7.8l-85.3,34.4c2.2-1.1,43.6-30.4,43.6-30.4l51.9-23.5l81.8-10.2
	L4299.1,1717.8z"/>
<path class="st9" d="M4583.3,1724.8c0,0-82.5,34.6-83.7,34.2c-1.2-0.4,46.6-53.6,46.6-53.6L4583.3,1724.8z"/>
<path class="st10" d="M5440.7,1698.3l-26.6,18.4l-65,2.3c0,0-64.6-9.8-67.1-9.8l60.9-1.6l95.5-8.6L5440.7,1698.3z"/>
<polygon class="st9" points="5786.3,1597.8 5774.5,1671 5766.7,1613.5 5719.3,1584.6 5774.1,1578.6 "/>
<polygon class="st10" points="5925.5,1512.2 5907.2,1538.3 5875.1,1552.4 5789.7,1550.6 "/>
<path class="st11" d="M842.9,1838.5l-83.3,63.4l-174.9,65.2l-399.4-35.6l139.7-21.8c0,0,128.3-16.3,254.8-33.2
	C705.3,1859.7,840.8,1838.8,842.9,1838.5z"/>
<path class="st12" d="M1809.5,1884.3l-196.5,8.2l-62.2,51.7l-30.9-142.7c1.5,0.2,2.7,0.5,3.6,0.7
	C1547.3,1807.6,1809.5,1884.3,1809.5,1884.3z"/>
<polygon class="st11" points="2924.3,1727.4 2839.7,1864.3 2606.1,1879.6 2424.2,1921.8 2331.9,1911.4 2504.3,1858.2 2652.3,1800.9 
	"/>
<path class="st12" d="M3719,1829.1c0,0-256.3,74-252.8,70.4c3.5-3.5,93.9-91.6,93.9-91.6l-66.5-72.8L3719,1829.1z"/>
<polygon class="st11" points="5093.9,1734.8 4958.6,1878.4 4803.7,1934.7 4580.9,1878.4 4949.3,1819.7 "/>
<path class="st13" d="M3195.8,335.7c-466.2,107.9-974.4-82.5-1425,78.6c-65.7,23.5-144,52.6-199.7,10.7c-15.1-11.4-26.5-27-41-39.2
	c-22.7-19.1-51.6-28.8-79.7-38.1c-144.8-47.7-301.2-95.7-446.7-50.3c-68.3,21.3-130.3,62.5-200.9,74.1c-89.4,14.7-186-19-269.2,16.7
	c28.7,29.3,8.1,83.2-28.4,102.1c-36.4,18.9-80.1,13.7-120.9,8.7c-40.8-5-85-8.7-120.1,12.5c-8.9,5.4-17.2,12.6-20.8,22.4
	c-11,29.8,25.4,54.7,35.7,84.7c19.2,56-53.1,97.1-110.5,111.7c-56,14.3-112.2,27.8-168.6,40.6V0h2439.5
	c39.4,11.4,78.5,23.3,117.5,36c38.8,12.6,78.4,26.5,109.4,52.9c31.1,26.4,52.2,68.4,42.8,108.1c-30.9,12.2-61.8,24.4-92.7,36.6
	C2815.1,232.8,3024.7,234.8,3195.8,335.7z"/>
<path class="st13" d="M6000,105.9v191.3c-150.2,5.5-300.3,16.3-449.8,32.5c-71.2,7.7-144.1,16.5-213.8,0.2
	c-46.1-10.8-89-32.1-134-46.6c-79.5-25.5-164.2-29.1-247.6-32.5c-135-5.5-270-11.1-405-16.6c-59.4-2.4-128-9.8-160.6-59.5
	c76.8-24.2,158.8-24.1,239.2-24.2C5085.9,149.8,5543.4,134.9,6000,105.9z"/>
<path class="st13" d="M3658.3,385.2c111.6,1.4,223.7,9.8,334.6-2.8c65.5-7.4,130-22.1,195.5-28.7c135.5-13.5,271.9,8.2,408,6
	c43.8-0.7,88-3.8,130.9,5c28.8,5.9,56.3,17.2,84.1,26.8c83.4,29,170.9,44.4,257.9,59.7c-252,20.2-505.7-23.2-757.9-5.1
	c-124.4,8.9-248.1,32.7-372.8,29.4c-45.3-1.2-90.8-6-136-2.2c-92.6,7.7-185.8,51.1-275,24.9c-30.7-9-58.6-25.2-87.2-39.3
	c-18.8-9.3-52.7-14.2-56.3-39c-4.3-29.5,28.2-26.5,48.2-28c35.6-2.6,71.3-4.5,107-5.6C3579,385.1,3618.6,384.7,3658.3,385.2z"/>
</svg>
