<?xml version="1.0" encoding="utf-8"?>
<!-- Generator: Adobe Illustrator 27.0.0, SVG Export Plug-In . SVG Version: 6.00 Build 0)  -->
<svg version="1.1" id="圖層_1" xmlns="http://www.w3.org/2000/svg" xmlns:xlink="http://www.w3.org/1999/xlink" x="0px" y="0px"
	 viewBox="0 0 64 64" style="enable-background:new 0 0 64 64;" xml:space="preserve">
<style type="text/css">
	.st0{fill:#00546B;}
</style>
<g>
	<path class="st0" d="M59.5,49.5c-3.5-0.1-6.3,0.3-8.6,1.2C50.2,51,49.1,51,49,51.9c0.4,0.4,0.4,0.9,0.7,1.4
		c0.5,0.9,1.5,2.1,2.3,2.7c0.9,0.7,1.9,1.4,2.8,2c1.7,1.1,3.7,1.7,5.4,2.7c1,0.6,2,1.4,2.9,2.1c0.5,0.4,0.8,0.9,1.4,1.2v-0.1
		c-0.3-0.4-0.4-1-0.7-1.4c-0.4-0.4-0.9-0.8-1.3-1.3c-1.3-1.7-2.9-3.2-4.6-4.5c-1.4-1-4.5-2.3-5.1-3.9c0,0,0,0-0.1-0.1
		c1-0.1,2.1-0.4,3.1-0.7c1.5-0.4,2.9-0.3,4.4-0.7c0.7-0.2,1.4-0.4,2.1-0.6v-0.4c-0.8-0.8-1.4-1.9-2.2-2.6c-2.3-2-4.7-3.9-7.3-5.5
		c-1.4-0.9-3.1-1.5-4.6-2.2c-0.5-0.3-1.4-0.4-1.7-0.8c-0.8-1-1.2-2.3-1.8-3.4c-1.3-2.4-2.5-5.1-3.6-7.7c-0.8-1.7-1.3-3.5-2.3-5.1
		c-4.6-7.5-9.5-12.1-17.2-16.6C20,5.4,18,5,16,4.5c-1.1,0-2.2-0.1-3.3-0.2c-0.7-0.3-1.4-1.2-2-1.6c-2.5-1.6-9-5.1-10.9-0.5
		C-1.5,5.2,1.5,8,2.5,9.5c0.8,1,1.7,2.2,2.3,3.3c0.3,0.8,0.4,1.6,0.7,2.4c0.7,2,1.4,4.1,2.3,5.9c0.5,0.9,1,1.9,1.6,2.7
		c0.4,0.5,1,0.7,1.1,1.5c-0.6,0.9-0.7,2.2-1,3.3c-1.6,5-1,11.2,1.3,14.9c0.7,1.1,2.4,3.5,4.7,2.6c2-0.8,1.6-3.3,2.1-5.5
		c0.1-0.5,0-0.9,0.3-1.2v0.1c0.6,1.2,1.2,2.4,1.8,3.7c1.4,2.2,3.8,4.4,5.8,5.9c1.1,0.8,1.9,2.2,3.2,2.7v-0.1h-0.1
		c-0.3-0.4-0.7-0.6-1-0.9c-0.8-0.8-1.7-1.8-2.3-2.7c-1.9-2.5-3.5-5.2-5-8.1c-0.7-1.4-1.3-2.9-1.9-4.3c-0.3-0.5-0.3-1.3-0.7-1.6
		c-0.7,1-1.6,1.8-2.1,3c-0.8,1.9-0.9,4.3-1.2,6.7c-0.2,0-0.1,0-0.2,0.1c-1.4-0.4-1.9-1.8-2.4-3.1c-1.3-3.1-1.6-8.2-0.4-11.8
		c0.3-0.9,1.6-3.9,1.1-4.7c-0.3-0.8-1.2-1.3-1.6-2c-0.6-0.8-1.2-1.9-1.6-2.8c-1.1-2.5-1.6-5.2-2.7-7.7C5.9,10.6,5,9.4,4.2,8.3
		c-0.8-1.2-1.8-2-2.4-3.5C1.5,4.4,1.2,3.6,1.6,3.1c0.1-0.4,0.3-0.5,0.6-0.6C2.8,2,4.4,2.6,5,2.9c1.6,0.7,3,1.3,4.4,2.2
		c0.6,0.4,1.3,1.3,2.1,1.5h0.9c1.4,0.3,3,0.1,4.3,0.5c2.4,0.8,4.5,1.9,6.4,3.1c5.8,3.7,10.6,8.9,13.8,15.2c0.5,1,0.8,2,1.2,3
		c0.9,2.2,2.1,4.4,3,6.5c0.9,2.1,1.8,4.2,3.1,5.9c0.7,0.9,3.3,1.4,4.5,1.9c0.9,0.4,2.3,0.8,3.1,1.2c1.5,0.9,3,2,4.4,3
		C57.1,47.5,59.3,48.6,59.5,49.5L59.5,49.5z"/>
	<path class="st0" d="M14.2,11c-0.8,0-1.3,0.1-1.8,0.2v0.1h0.1c0.4,0.7,1,1.2,1.4,1.8c0.4,0.7,0.7,1.4,1,2.1c0,0,0.1-0.1,0.1-0.1
		c0.6-0.4,0.9-1.2,0.9-2.2c-0.3-0.3-0.3-0.6-0.5-0.9C15.2,11.5,14.6,11.3,14.2,11L14.2,11z"/>
</g>
</svg>
