<?xml version="1.0" encoding="utf-8"?>
<svg version="1.1" xmlns="http://www.w3.org/2000/svg" xmlns:xlink="http://www.w3.org/1999/xlink" x="0px" y="0px"
	 viewBox="0 0 170.4 170.4" style="enable-background:new 0 0 170.4 170.4;" xml:space="preserve">
<style type="text/css">
	.st0{fill:#FFFFFF;}
	.st1{clip-path:url(#SVGID_00000092434514110023202180000011849577542018729903_);}
	.st2{fill:#3F9CCA;}
	.st3{fill:#263238;}
	.st4{opacity:0.3;}
	.st5{opacity:0.3;enable-background:new    ;}
	.st6{fill:#455A64;}
	.st7{fill:#E0E0E0;}
	.st8{fill:#FFBE9D;}
	.st9{fill:#EB996E;}
</style>
<g>
	<circle class="st0" cx="85.2" cy="85.2" r="85.2"/>
	<g>
		<defs>
			<circle id="SVGID_1_" cx="85.2" cy="85.2" r="85.2"/>
		</defs>
		<clipPath id="SVGID_00000177481029533923783300000005028721237878796462_">
			<use xlink:href="#SVGID_1_"  style="overflow:visible;"/>
		</clipPath>
		<g id="freepik--Character--inject-29" style="clip-path:url(#SVGID_00000177481029533923783300000005028721237878796462_);">
			<path class="st2" d="M136.1,198.9l20.1-19.9l-35.9-61.5c-3.7-4.3-8.5-7.6-13.8-9.6L93.9,103l-31.5-5.8l-22.3,8.8
				c-5.6,2.2-9.1,8-8.4,14l5.8,49.2l3.4,64l81.1-14.1l-8.2-23.7l0.3-36.9L136.1,198.9z"/>
			<path class="st3" d="M114.8,193.9c0.2,0,0.2-12.8,0.1-28.6s-0.4-28.6-0.6-28.6s-0.2,12.8-0.1,28.6S114.6,193.9,114.8,193.9z"/>
			<path class="st2" d="M111.8,203.3l-49-19.7c-4-1.6-6.7-5.3-7-9.5l-3.6-47c0,0,0.4-20-12.1-21l-7.1,2.8
				c-9.2,4.9-11.5,18.3-10.2,28.6c1.8,14.7,2.5,35.4,4.5,48.1c1.6,10.4,7.9,18.6,17.8,22.2l60.4,13.1L111.8,203.3z"/>
			<path class="st3" d="M52.9,134.2c0.1,0.4,0.1,0.7,0.1,1.1c0.1,0.8,0.2,1.8,0.3,3.1c0.2,2.8,0.6,6.6,1,11.4s0.9,10.6,1.5,16.9
				c0.1,1.6,0.3,3.2,0.4,4.9c0.1,1.7,0.3,3.3,0.6,5c0.3,1.7,1.2,3.2,2.4,4.4c1.3,1.2,2.9,2.1,4.5,2.8c13.5,5.9,26,10.7,35,14.1
				l10.7,4l2.9,1.1c0.3,0.1,0.7,0.2,1,0.4c-0.3-0.1-0.7-0.2-1-0.3l-3-1c-2.6-0.9-6.3-2.1-10.8-3.8c-9.1-3.3-21.6-8-35.1-13.9
				c-1.7-0.7-3.3-1.7-4.7-2.9c-1.3-1.3-2.2-2.9-2.6-4.7c-0.3-1.7-0.5-3.4-0.6-5.1c-0.1-1.7-0.3-3.3-0.4-4.9
				c-0.5-6.4-0.9-12.1-1.3-16.9s-0.6-8.6-0.8-11.4c-0.1-1.3-0.1-2.3-0.2-3.1C52.9,134.9,52.9,134.6,52.9,134.2z"/>
			<path class="st3" d="M24.9,159.8c0.1,0.2,0.1,0.4,0.1,0.6c0,0.5,0.1,1.1,0.2,1.8c0.1,1.7,0.4,3.9,0.6,6.7s0.6,6.2,1.1,9.9
				c0.5,4,1.2,8,2.2,11.9c0.5,2,1.3,3.9,2.4,5.7c1.1,1.6,2.3,3.1,3.7,4.5c2.3,2.4,4.9,4.4,7.9,5.9c2.7,1.4,5.6,2.3,8.6,2.8
				c-0.2,0-0.4,0-0.6,0c-0.6,0-1.2-0.1-1.8-0.2c-2.2-0.4-4.4-1.2-6.4-2.2c-3-1.5-5.7-3.5-8.1-5.9c-1.4-1.4-2.7-2.9-3.8-4.6
				c-1.2-1.8-2-3.8-2.5-5.9c-1-3.9-1.7-8-2.2-12c-0.5-3.7-0.8-7.1-1-9.9s-0.3-5.1-0.4-6.7c0-0.7,0-1.3,0-1.8
				C24.8,160.2,24.8,160,24.9,159.8z"/>
			<path class="st3" d="M45.8,192.6c0.1-0.9,0.4-1.8,0.9-2.6c2-4.1,5.6-7.1,9.9-8.5c0.9-0.3,1.8-0.5,2.7-0.5c0,0.1-1,0.3-2.6,0.9
				c-2,0.8-3.9,1.9-5.6,3.3c-1.6,1.4-3,3.1-4.1,5C46.3,191.7,45.9,192.7,45.8,192.6z"/>
			<g class="st4">
				<path d="M97.7,197.7c-5.2-3-10.4-5.2-15.8-7.7s-10.9-5.7-14.4-10.5c-6.8-9.1-6-22.3-12.9-31.3l1.4,18.1c0.4,5.5-0.4,11,3.1,14.8
					c3,3.2,8.9,5.6,13,7C80.4,190.9,89.4,195,97.7,197.7"/>
			</g>
			<polygon class="st5" points="114.3,140.3 118.6,166.4 114.6,159 			"/>
			<path class="st6" d="M51.4,124.1c-0.4,0.1-0.8,0.1-1.1,0.1l-3.1,0.1c-2.6,0.1-6.2,0.2-10.2,0.5s-7.5,0.7-10.1,1l-3.1,0.4
				c-0.4,0.1-0.8,0.1-1.1,0.1c0.4-0.1,0.7-0.2,1.1-0.3c0.7-0.1,1.8-0.3,3-0.5c2.6-0.4,6.2-0.8,10.2-1.1s7.6-0.4,10.2-0.3
				c1.3,0,2.4,0,3.1,0.1C50.7,124,51.1,124,51.4,124.1z"/>
			<path class="st6" d="M52.9,149.2c0,0.1-6.4,0.8-14.4,1.4s-14.4,1.1-14.4,0.9s6.4-0.8,14.4-1.5S52.9,149,52.9,149.2z"/>
			<path class="st6" d="M55.2,175.5c-0.3,0.2-0.6,0.4-1,0.6c-0.7,0.4-1.6,0.8-2.9,1.3c-6.5,2.7-13.4,4.3-20.4,4.6
				c-1.4,0.1-2.4,0.1-3.2,0c-0.4,0-0.8,0-1.2-0.1c0.4-0.1,0.8-0.1,1.2-0.1c0.8,0,1.8-0.1,3.2-0.2c3.5-0.2,6.9-0.7,10.3-1.5
				c3.4-0.8,6.7-1.8,10-3c1.2-0.5,2.3-0.9,3-1.2C54.5,175.7,54.8,175.6,55.2,175.5z"/>
			<path class="st6" d="M72.6,189c-1.8,1.1-3.4,2.4-4.9,3.9c-1.3,1.6-2.5,3.4-3.4,5.2c0.1-0.6,0.2-1.2,0.5-1.8
				c1.2-2.8,3.3-5.1,6-6.6C71.4,189.3,72,189.1,72.6,189z"/>
			<path class="st6" d="M90.4,206.3c0.8-3.6,2.6-7,5.2-9.6c0.1,0.1-1.4,2-2.9,4.6S90.5,206.3,90.4,206.3z"/>
			<path class="st6" d="M62.4,109.4c-2.3,0.7-4.6,1.2-6.9,1.5c-2.3,0.5-4.6,0.8-7,1c2.3-0.7,4.6-1.2,6.9-1.5
				C57.7,109.9,60.1,109.6,62.4,109.4z"/>
			<path class="st6" d="M109.3,111.5c-3.2-0.1-6.4-0.4-9.6-0.9c-3.2-0.3-6.4-0.8-9.5-1.4c3.2,0.1,6.4,0.4,9.6,0.9
				C103,110.4,106.2,110.9,109.3,111.5z"/>
			<path class="st6" d="M113.3,133.4c-0.2,0-0.4,0-0.6,0H111h-6.5c-5.5,0-13,0-21.3,0.2s-15.9,0.6-21.3,0.9l-6.5,0.3l-1.8,0.1
				c-0.2,0-0.4,0-0.6,0c0.2,0,0.4-0.1,0.6-0.1l1.8-0.2c1.5-0.1,3.7-0.3,6.5-0.5c5.5-0.4,13-0.8,21.3-1s15.9-0.2,21.3-0.1
				c2.7,0,4.9,0.1,6.5,0.2l1.8,0.1C112.9,133.3,113.2,133.3,113.3,133.4z"/>
			<path class="st6" d="M113.9,161c0,0.1-12.8,1.1-28.7,2.1s-28.7,1.8-28.8,1.6s12.9-1.1,28.7-2.1C101,161.6,113.9,160.9,113.9,161z
				"/>
			<path class="st6" d="M112.6,185.4c-0.3,0.2-0.7,0.3-1.1,0.5c-0.7,0.3-1.7,0.6-3,1c-2.6,0.8-6.2,1.9-10.2,2.9s-7.7,1.7-10.3,2.1
				c-1.3,0.2-2.4,0.4-3.2,0.5c-0.4,0.1-0.8,0.1-1.2,0.1c0.4-0.1,0.8-0.2,1.2-0.3l3.1-0.6c2.7-0.5,6.3-1.3,10.3-2.2s7.6-2,10.2-2.7
				l3.1-0.9C111.8,185.5,112.2,185.4,112.6,185.4z"/>
			<path class="st6" d="M133.1,141.2c-3.1,1.1-6.2,2-9.3,2.7c-3.1,0.9-6.3,1.6-9.5,2.2c3.1-1.1,6.2-2,9.3-2.7
				C126.8,142.5,129.9,141.8,133.1,141.2z"/>
			<path class="st6" d="M123.3,122.5c-1.3,0.5-2.7,0.8-4.1,1c-1.4,0.3-2.8,0.5-4.2,0.5c1.3-0.5,2.7-0.8,4.1-1
				C120.5,122.7,121.9,122.5,123.3,122.5z"/>
			<path class="st3" d="M53.1,128.3c-0.1,0-0.3-1.7-1.2-4.2c-2.4-6.7-8-11.7-14.9-13.4c-2.6-0.6-4.3-0.6-4.3-0.7
				c0.4-0.1,0.8-0.1,1.2,0c1.1,0,2.1,0.2,3.2,0.4c7.1,1.5,12.9,6.7,15.1,13.6c0.3,1,0.6,2.1,0.7,3.1
				C53.1,127.6,53.1,127.9,53.1,128.3z"/>
			<path class="st3" d="M111.5,115c0.8,3,1.3,6.1,1.7,9.1c0.6,3.1,1,6.1,1.2,9.2c-0.7-3-1.3-6.1-1.7-9.1
				C112.1,121.2,111.7,118.1,111.5,115z"/>
			<path class="st2" d="M166.1,262.4c0,0,37.7,10.4,39.2,11c2.3,0.8,1.9,9.1-1.6,9c-1.7-0.1-28.9,1-32.4,0.8s-13.8-4.3-13.8-4.3
				L166.1,262.4z"/>
			<path class="st3" d="M181.8,276.8c0.2,0,0.4-2,1.7-4s2.8-3.3,2.7-3.5s-1.9,0.9-3.2,3.1S181.7,276.8,181.8,276.8z"/>
			<path class="st3" d="M177.9,275c0.2,0,0.6-1.8,1.6-3.7s2.2-3.3,2-3.5c-1.2,0.8-2.1,1.9-2.6,3.2C177.9,273.1,177.7,275,177.9,275z
				"/>
			<path class="st3" d="M174.2,274c0.2,0,0-1.9,0.9-4s2.2-3.4,2.1-3.5s-1.8,1-2.6,3.3S174,274.1,174.2,274z"/>
			<path class="st3" d="M174.9,269.1c0.3-0.9,0.5-1.9,0.4-2.8c0-1-0.1-2.1-0.4-3.1c-0.1-0.6-0.3-1.2-0.6-1.8
				c-0.1-0.4-0.3-0.7-0.6-0.9c-0.4-0.3-0.9-0.3-1.3,0.1c-0.3,0.3-0.5,0.7-0.5,1.1c0,0.3,0,0.7,0,1c0,0.6,0.1,1.2,0.2,1.9
				c0.3,1,0.6,2,1.2,2.9c0.4,0.9,1,1.6,1.7,2.3c0.1-0.1-0.5-0.9-1.3-2.5c-0.4-0.9-0.8-1.8-1-2.8c-0.1-0.6-0.2-1.1-0.2-1.7
				c0-0.6,0-1.3,0.3-1.6c0.1-0.1,0.4-0.1,0.5,0c0.2,0.2,0.3,0.4,0.4,0.7c0.2,0.5,0.4,1.1,0.6,1.7c0.3,1,0.4,1.9,0.5,2.9
				C174.9,268.1,174.8,269.1,174.9,269.1z"/>
			<path class="st3" d="M174.9,268.8c-0.8-0.3-1.6-0.5-2.4-0.4c-0.9,0-1.8,0.1-2.7,0.3c-0.5,0.1-1.1,0.3-1.5,0.6
				c-0.6,0.3-1,1-0.8,1.7c0.2,0.7,0.7,1.2,1.4,1.3c0.6,0.1,1.1,0.1,1.7,0c0.9-0.2,1.7-0.6,2.4-1.2c0.7-0.5,1.3-1.1,1.8-1.7
				c-0.7,0.4-1.4,0.9-2,1.4c-0.7,0.5-1.5,0.8-2.3,1c-0.5,0.1-0.9,0.1-1.4,0c-0.4-0.1-0.8-0.5-0.9-0.9c-0.1-0.4,0.2-0.9,0.6-1.1
				c0.4-0.2,0.9-0.4,1.4-0.5c0.8-0.2,1.7-0.4,2.5-0.4C173.9,268.7,174.8,268.9,174.9,268.8z"/>
			<path class="st3" d="M187.6,277.2c0.2,0,0-1.6,0.7-3.4s2-2.8,1.8-3s-1.6,0.7-2.4,2.7S187.4,277.2,187.6,277.2z"/>
			<path class="st3" d="M161.3,278.9c0.5,0.3,0.9,0.5,1.5,0.7c1.4,0.5,2.8,1,4.2,1.3c4.7,1,9.5,1.5,14.4,1.4
				c5.7-0.1,10.7-0.3,14.4-0.5l4.4-0.2c0.5,0,1.1-0.1,1.6-0.2c-0.5-0.1-1.1-0.1-1.6-0.1h-4.4l-14.4,0.3c-4.8,0.1-9.6-0.3-14.3-1.2
				C163.5,279.7,161.3,278.8,161.3,278.9z"/>
			<path class="st3" d="M160.2,279.8c0,0.1,1.1-0.5,2.8-1.3c2.2-1.1,4.7-1.5,7.1-1.2c2.4,0.5,4.6,1.8,6.2,3.7
				c0.7,0.8,1.4,1.5,2.2,2.2c-0.5-0.9-1.1-1.8-1.8-2.5c-0.7-0.9-1.6-1.7-2.5-2.3c-1.2-0.9-2.5-1.4-3.9-1.6c-2.5-0.3-5.1,0.2-7.4,1.4
				C161.9,278.5,161,279.1,160.2,279.8z"/>
			<path class="st2" d="M121.5,253.6c0,0-35.7,23.3-36.9,24.3c-1.9,1.5,0.3,8.4,3.6,7.2c1.6-0.6,31.5-8.9,34.7-10.1
				s11.9-8.3,11.9-8.3L121.5,253.6z"/>
			<path class="st3" d="M110.9,272.1c0.2,0-0.5-2.1-2.4-3.8s-4-2.2-4-2s1.8,0.9,3.6,2.5S110.8,272.2,110.9,272.1z"/>
			<path class="st3" d="M114.1,269.2c0.2,0-0.5-1.9-2.2-3.5s-3.4-2.4-3.5-2.2s1.5,1.1,3,2.7S114,269.3,114.1,269.2z"/>
			<path class="st3" d="M117.3,267.2c0.2,0,0-2-1.6-3.9s-3.5-2.5-3.5-2.3s1.6,1,3,2.7S117.2,267.2,117.3,267.2z"/>
			<path class="st3" d="M115.2,262.7c0.1,0-0.4-1-0.8-2.7c-0.2-1-0.4-2-0.4-3c0-0.6,0-1.2,0-1.8c0-0.3,0.1-0.5,0.2-0.8
				c0.1-0.2,0.3-0.2,0.5-0.1c0.4,0.2,0.6,0.9,0.8,1.4c0.2,0.5,0.3,1.1,0.3,1.7c0.1,1,0.1,2-0.1,3c-0.2,1.7-0.6,2.7-0.5,2.8
				c0.5-0.8,0.8-1.7,0.9-2.7c0.2-1,0.3-2.1,0.2-3.1c0-0.6-0.2-1.2-0.3-1.8c-0.1-0.3-0.2-0.6-0.3-0.9c-0.2-0.4-0.4-0.7-0.8-0.9
				c-0.4-0.2-1-0.1-1.2,0.3c-0.2,0.3-0.3,0.7-0.3,1.1c0,0.6,0,1.2,0,1.8c0.1,1,0.3,2,0.6,3C114.2,261.1,114.6,262,115.2,262.7z"/>
			<path class="st3" d="M115.2,262.3c0,0.1,0.9-0.3,2.3-0.7c0.8-0.2,1.7-0.3,2.5-0.4c0.5,0,1,0,1.5,0.1c0.4,0.1,0.8,0.4,0.8,0.8
				c0,0.5-0.2,0.9-0.6,1.1c-0.4,0.2-0.9,0.4-1.3,0.4c-0.8,0.1-1.7,0-2.5-0.2c-0.8-0.3-1.5-0.5-2.3-0.7c0.7,0.5,1.4,0.9,2.2,1.1
				c0.9,0.3,1.8,0.5,2.7,0.4c0.6,0,1.1-0.2,1.6-0.5c0.6-0.4,0.9-1,0.9-1.7c-0.1-0.7-0.6-1.3-1.3-1.4c-0.5-0.1-1.1-0.1-1.6-0.1
				c-0.9,0.1-1.8,0.2-2.7,0.5C116.5,261.4,115.8,261.8,115.2,262.3z"/>
			<path class="st3" d="M92.7,283.8c0,0.1,0.6-0.4,0.9-1.4c0.3-1.3,0-2.7-0.7-3.9c-0.4-0.6-0.8-1.2-1.2-1.8
				c-0.3-0.5-0.7-0.9-1.2-1.3c-0.3-0.3-0.7-0.4-1.1-0.5c-0.3,0-0.5,0.1-0.4,0.1c0.5,0.1,0.9,0.4,1.3,0.7c0.4,0.4,0.7,0.8,1,1.3
				c0.4,0.6,0.8,1.1,1.1,1.7c0.6,1,0.9,2.3,0.8,3.5C93,282.8,92.9,283.3,92.7,283.8z"/>
			<path class="st3" d="M105.5,274.3c0.2,0,0.1-1.8-1.2-3.4s-3.1-2-3.1-1.8s1.4,0.8,2.7,2.2S105.3,274.3,105.5,274.3z"/>
			<path class="st3" d="M131.1,267.9c-0.6,0.3-1.1,0.7-1.6,1.1c-1.4,1-2.9,1.9-4.4,2.7c-2.3,1.2-4.6,2.2-7,3.1c-2.7,1-5.7,2-8.9,2.9
				c-6.4,1.9-12.2,3.5-16.4,4.8l-5,1.5c-0.6,0.2-1.2,0.4-1.8,0.6c0.6-0.1,1.3-0.2,1.9-0.4l5-1.3c4.2-1.1,10-2.8,16.5-4.6
				c3.2-0.9,6.2-1.9,9-3c2.4-0.9,4.7-2,7-3.3c1.5-0.9,3-1.8,4.3-2.9C130.2,268.8,130.7,268.4,131.1,267.9z"/>
			<path class="st3" d="M132.4,268.4c-1-0.4-2-0.7-3-0.8c-2.5-0.5-5.1-0.2-7.5,0.9c-1.3,0.7-2.4,1.6-3.2,2.8c-0.7,0.9-1.2,1.9-1.7,3
				c-0.5,1-0.8,2-1,3c0.5-0.9,1-1.8,1.4-2.8c0.8-1.7,2.2-4.1,4.8-5.4c2.2-1,4.7-1.3,7.2-1C131.3,268.2,132.4,268.5,132.4,268.4z"/>
			<path class="st3" d="M195.6,195.3c0,0,10.7,3.8,10.7,15.8c0.1,23-46.4,48.3-46.4,48.3l-61.9-41l-3.9-1.6
				C94.2,216.8,177.7,185.4,195.6,195.3z"/>
			<path class="st6" d="M129.4,239.1c0.6-0.3,1.1-0.7,1.6-1.1c1-0.7,2.5-1.8,4.2-3.2c3.5-2.7,8.4-6.6,13.5-11.1s9.8-8.6,13-11.7
				c1.6-1.5,2.9-2.8,3.8-3.7c0.5-0.4,0.9-0.9,1.3-1.4c-0.5,0.4-1,0.8-1.5,1.2l-3.9,3.5c-3.3,3-7.9,7.1-13.1,11.6s-9.9,8.4-13.4,11.2
				l-4.1,3.3C130.4,238.2,129.9,238.6,129.4,239.1z"/>
			<path class="st6" d="M178.2,203.8c-2-0.3-4.1-0.1-6,0.5c-3.2,0.9-5.4,2.7-5.3,2.8s2.4-1.3,5.5-2.2S178.2,204,178.2,203.8z"/>
			<path class="st6" d="M172.9,200.2c-1.5,0.5-2.8,1.5-3.7,2.8c-1.7,2-2.1,4.1-1.9,4.2s0.9-1.9,2.4-3.8S172.9,200.4,172.9,200.2z"/>
			<path class="st3" d="M199,273c0-0.1-0.7-0.2-1.6,0.5c-1,0.9-1.6,2.2-1.8,3.6c-0.2,1.4,0,2.8,0.6,4c0.4,0.9,0.9,1.4,1,1.3
				s-0.2-0.6-0.6-1.5c-0.4-1.2-0.5-2.5-0.3-3.7c0.1-1.2,0.6-2.4,1.5-3.4C198.4,273.1,199.1,273.1,199,273z"/>
			<path class="st7" d="M191.2,162.6l-17.6,47.5c-1,2.7-3.6,4.5-6.5,4.5l-96.9-1.3v-7.4l36,1.3l15.3-47.3c0.5-1.6,2-2.7,3.7-2.7
				l62.5,0.2c2.1,0,3.8,1.8,3.8,3.9C191.5,161.8,191.4,162.2,191.2,162.6z"/>
			<path class="st3" d="M191.2,162.6c0,0,0,0,0-0.1c0.1-0.1,0.1-0.3,0.1-0.4c0.1-0.6,0.1-1.2,0-1.8c-0.4-1.6-1.8-2.7-3.5-2.8
				c-0.7,0-1.4,0-2.2,0h-26.1h-18.3h-10.3h-5.4c-0.9-0.1-1.8,0.1-2.6,0.6c-0.8,0.5-1.3,1.2-1.6,2.1l-15.2,47.3v0.1h-0.1l-36-1.3
				l0.2-0.2v7.4l-0.1-0.1l60.9,0.8l26.5,0.4l6.1,0.1h3c1,0.1,1.9-0.1,2.8-0.4c1.8-0.6,3.2-2,3.9-3.7c0.6-1.7,1.3-3.4,1.9-5
				c4.9-13.2,8.9-23.8,11.6-31.2c1.4-3.7,2.4-6.5,3.2-8.5S191.2,162.7,191.2,162.6c0,0.1-0.3,1.1-1,3.1l-3.1,8.4
				c-2.7,7.4-6.7,18-11.5,31.2l-1.9,5.1c-0.7,1.8-2.2,3.2-4,3.9c-0.9,0.3-1.9,0.5-2.9,0.4h-3l-6.1-0.1l-26.5-0.3l-61-0.8H70v-7.7
				h0.2l36,1.3l-0.2,0.1l15.3-47.2c0.3-0.9,0.9-1.7,1.7-2.2c0.8-0.5,1.8-0.7,2.7-0.6h5.4h10.3l18.3,0.1l26.1,0.1c0.8,0,1.5,0,2.2,0
				c1.7,0.1,3.1,1.3,3.5,2.9c0.1,0.6,0.1,1.2,0,1.8C191.4,162.3,191.3,162.5,191.2,162.6z"/>
			<path class="st0" d="M148.2,180.6c1.5-0.8,3.4-0.6,4.7,0.5c1.1,1.1,1.5,2.7,0.9,4.2c-0.6,1.4-2,2.4-3.5,2.5
				c-1.7,0.1-3.2-0.9-3.7-2.5C146.1,183.7,146.6,181.4,148.2,180.6"/>
			<path class="st3" d="M170.4,262c0,0-87.3-55.9-91.2-58.1c-3.3-1.9-12.1-7.3-20.7-4.9s-16.4,10.2-20.3,21.5
				c-2.2,6.5-3.3,17.5-3.8,25.8c-0.7,9.9,2.6,19.7,9,27.3c2.8,3.5,6.6,6.2,10.9,7.7c0.9,0.3,1.9,0.5,2.8,0.7
				c16.5,3.6,33.5-3.8,42.8-18l2-3.1c0,0,57.2,21,58.1,20.7L170.4,262z"/>
			<path class="st6" d="M83.7,206.9c0,0-0.1,0-0.2-0.1l-0.6-0.4c-0.5-0.4-1.3-0.9-2.4-1.6c-2.9-1.9-6-3.5-9.3-4.7
				c-2.2-0.8-4.6-1.3-7-1.5c-2.7-0.1-5.5,0.3-8,1.3c-2.8,1.1-5.4,2.7-7.7,4.7c-1.2,1-2.4,2.2-3.4,3.4c-1.1,1.2-2,2.6-2.8,4
				c-1.6,2.8-2.9,5.9-3.8,9c-0.8,3-1.5,6.1-2.1,8.9c-1.2,5-1.8,10.2-2,15.3c-0.1,3.5,0.2,7,0.8,10.4c0.2,1.2,0.4,2.1,0.5,2.8
				l0.1,0.7c0,0.1,0,0.2,0,0.2c0-0.1-0.1-0.2-0.1-0.2c0-0.2-0.1-0.4-0.2-0.7c-0.2-0.6-0.4-1.5-0.6-2.8c-0.7-3.4-1-6.9-1-10.4
				c0.1-5.2,0.8-10.3,1.9-15.4c0.6-2.9,1.3-5.9,2.1-8.9c0.9-3.2,2.2-6.2,3.8-9.1c0.8-1.5,1.8-2.8,2.9-4.1c1.1-1.2,2.2-2.4,3.5-3.4
				c2.3-2,5-3.6,7.9-4.7c2.6-1,5.4-1.4,8.2-1.3c2.4,0.2,4.8,0.7,7.1,1.6c3.3,1.3,6.4,2.9,9.3,4.9c1,0.7,1.8,1.3,2.3,1.7l0.6,0.5
				C83.6,206.8,83.6,206.9,83.7,206.9z"/>
			<path class="st6" d="M62.2,246.2c0.2,0.1,0.3,0.2,0.5,0.2l1.4,0.6l5.5,2.2l20.6,7.8c8.8,3.3,19.2,7.1,31,11.4s24.8,9,38.7,13.7
				l0.3,0.1l0.1-0.2c2.2-4.2,4.5-8.6,6.8-13l3.5-6.7l0.1-0.3l-0.2-0.1l-66.7-42.3l-20-12.6l-5.4-3.4l-1.4-0.9
				c-0.2-0.1-0.3-0.2-0.5-0.3c0,0,0.2,0.1,0.5,0.3l1.4,0.9l5.4,3.5l19.9,12.8l66.6,42.5l-0.1-0.4c-1.1,2.1-2.3,4.4-3.5,6.6l-6.8,13
				l0.4-0.2c-13.9-4.7-27-9.4-38.7-13.6l-31-11.3l-20.7-7.6l-5.6-2l-1.5-0.5L62.2,246.2z"/>
			<path class="st2" d="M66.7,60.6c-1.6-2.9-2.9-6.1-3.9-9.3c-0.9-3.3-0.8-6.7,0.5-9.9c0.8-1.8,2.1-3.4,2.7-5.2
				c0.9-2.6,0.5-5.6,2.1-7.8C70.7,25,76,25.8,79.8,24c3-1.4,5.1-4.4,8.2-5.4c2.7-0.9,5.7,0,8.4,1.1s5.2,2.6,8.1,2.9
				c2,0.1,4.1,0.1,6.2,0c2.1-0.1,4.1,0.6,5.7,2c1.4,1.4,1.7,4.1,0.2,5.5c3.6-0.6,7,3,6.9,6.6s-2.8,6.8-6.1,8.4s-7.1,1.6-10.7,1.3
				C96.3,45.6,86,41.7,79,34.1"/>
			<path class="st8" d="M68.9,47.7l-7,50.9c-1.2,8.3,4.7,16.1,13,17.2c0.3,0,0.5,0.1,0.8,0.1l0,0c8.1,0.7,15.4-5.1,16.5-13.1
				c0.5-3.8,1-7,1-7.4c0,0,13.1,0.6,15.8-12.1c1.3-6.1,3-19,4.3-30.6c1.5-12.5-6.9-24-19.2-26.5l-1.2-0.2
				C79.5,24,70.4,34.3,68.9,47.7z"/>
			<path class="st9" d="M93.3,95.1c-5.9-1.1-11.3-3.8-15.6-8c0,0,2.1,9.9,15,11.3L93.3,95.1z"/>
			<path class="st3" d="M107.7,63.4c-0.2,1-1.1,1.6-2.1,1.5c-1-0.1-1.7-1-1.5-2c0,0,0,0,0,0c0.2-1,1.1-1.6,2.1-1.5
				C107.1,61.5,107.8,62.4,107.7,63.4C107.7,63.4,107.7,63.4,107.7,63.4z"/>
			<path class="st3" d="M109.4,58.3c-0.3,0.2-1.4-1.1-3.4-1.5s-3.6,0.3-3.7,0c-0.1-0.1,0.2-0.5,1-0.8c0.9-0.4,2-0.5,3-0.3
				c1,0.2,1.9,0.7,2.7,1.5C109.4,57.7,109.6,58.2,109.4,58.3z"/>
			<path class="st3" d="M89.5,60.2c-0.2,1-1.1,1.6-2.1,1.5c-1-0.1-1.7-1-1.5-2c0,0,0,0,0,0c0.2-1,1.1-1.6,2.1-1.5
				C88.9,58.4,89.6,59.2,89.5,60.2C89.5,60.2,89.5,60.2,89.5,60.2z"/>
			<path class="st3" d="M90.1,54.8c-0.3,0.2-1.5-1.1-3.4-1.5s-3.6,0.3-3.7,0c-0.1-0.1,0.2-0.5,1-0.8c0.9-0.4,2-0.5,3-0.3
				c1,0.2,1.9,0.7,2.7,1.5C90.2,54.2,90.3,54.7,90.1,54.8z"/>
			<path class="st3" d="M94.3,70.7c1.1-0.1,2.2-0.1,3.3,0.1c0.5,0.1,1,0,1.2-0.3c0.2-0.5,0.2-1,0-1.6c-0.2-1.3-0.5-2.7-0.7-4.1
				c-1-5.8-1.6-10.6-1.3-10.6s1.2,4.6,2.2,10.5c0.2,1.4,0.4,2.8,0.7,4.1c0.2,0.7,0.1,1.4-0.1,2c-0.2,0.3-0.6,0.5-1,0.6
				c-0.3,0-0.6,0-0.9-0.1C96.5,71.3,95.4,71.1,94.3,70.7z"/>
			<path class="st3" d="M88.3,70.9c0.3,0-0.1,2.2,1.4,4s3.8,2.1,3.8,2.4c0,0.1-0.6,0.3-1.5,0.1c-1.2-0.2-2.4-0.9-3.2-1.9
				c-0.8-0.9-1.1-2.1-1-3.4C87.9,71.3,88.2,70.9,88.3,70.9z"/>
			<path class="st2" d="M92.2,47.2c-0.3,0.5-2.2-0.1-4.5-0.3s-4.3,0.1-4.5-0.5c-0.1-0.3,0.3-0.7,1.2-1.1c2.3-0.9,4.8-0.6,6.9,0.6
				C92,46.5,92.3,47,92.2,47.2z"/>
			<path class="st2" d="M109.9,52.5c-0.4,0.4-1.7-0.4-3.3-0.7s-3-0.3-3.3-0.8c-0.1-0.3,0.2-0.7,0.9-1c1.8-0.7,3.9-0.2,5.3,1.2
				C109.9,51.8,110,52.3,109.9,52.5z"/>
			<path class="st8" d="M68.1,57.3c-0.2-0.1-8.2-4.3-9.7,4.4s7.6,8.4,7.7,8.2S68.1,57.3,68.1,57.3z"/>
			<path class="st9" d="M64,66.2c0,0-0.2,0.1-0.4,0.1c-0.4,0.1-0.8,0-1.1-0.2c-0.9-0.5-1.4-2.1-1.2-3.7c0.1-0.8,0.4-1.5,0.8-2.1
				c0.3-0.5,0.8-0.9,1.3-1c0.4,0,0.7,0.2,0.8,0.6c0.1,0.3,0,0.4,0,0.4s0.2-0.1,0.2-0.5c0-0.2-0.1-0.4-0.2-0.6
				c-0.2-0.2-0.5-0.4-0.8-0.4c-0.8,0-1.4,0.4-1.8,1.1c-0.5,0.7-0.8,1.5-0.9,2.4c-0.2,1.8,0.4,3.6,1.6,4.1c0.5,0.2,1,0.2,1.4,0
				C63.9,66.4,64,66.2,64,66.2z"/>
			<path class="st2" d="M115.9,40.8c-1.5,3.2-9.2,4.5-14.9,2.8c-5.2-1.6-7.1-4.9-10.4-7.8c-2.1-1.8-2.1-1.8-5.5-2.2
				c-2.8-0.3-5,2.5-7.1,4.3c1.2,7-1.9,13.8-4.9,20.2c-0.3,0.7-0.8,1.4-1.4,1.8c-1.2,0.6-2.6-0.3-3.3-1.5c-1-1.9-1.4-4-1.2-6.1
				c0-4.8,1-9.6,2.9-14.1c1.9-4.5,5.1-8.3,9.1-11c5.2-3.2,11.4-4.2,17.4-2.9c5.9,1.4,11.3,4.6,15.2,9.1
				C113.7,35.5,115.1,38,115.9,40.8"/>
			<path class="st3" d="M98.1,61.9c0.1,0,0-0.8,0.4-2c0.5-1.8,1.6-3.4,3.1-4.5c2.2-1.6,5.1-2.1,7.7-1.1c1.5,0.6,2.8,1.5,3.8,2.9
				c2.1,2.9,2.1,6.7,0,9.6c-0.9,1.3-2.3,2.3-3.8,2.9c-2.6,1-5.5,0.5-7.7-1.1c-1.5-1.1-2.6-2.7-3.1-4.5C98.2,62.7,98.2,62,98.1,61.9
				c0,0.3,0,0.4,0,0.6c0,0.5,0.1,1,0.2,1.6c0.4,1.9,1.5,3.6,3.1,4.8c3.8,2.9,9.3,2.2,12.2-1.6c0-0.1,0.1-0.1,0.1-0.2
				c2.3-3.1,2.3-7.3,0-10.4c-2.8-3.9-8.3-4.7-12.2-1.9c-0.1,0-0.1,0.1-0.2,0.2c-1.6,1.2-2.6,2.9-3.1,4.8c-0.1,0.5-0.2,1-0.2,1.6
				C98.1,61.5,98.1,61.7,98.1,61.9z"/>
			<path class="st3" d="M77.4,58.3c0.1,0,0-0.8,0.4-2c0.5-1.8,1.6-3.4,3.1-4.5c2.2-1.7,5.1-2.1,7.7-1.1c1.5,0.6,2.8,1.5,3.8,2.8
				c2.1,2.9,2.1,6.7,0,9.6c-0.9,1.3-2.3,2.3-3.8,2.8c-2.6,1-5.5,0.5-7.7-1.1c-1.5-1.1-2.6-2.7-3.1-4.5
				C77.4,59.1,77.4,58.3,77.4,58.3c0,0.2,0,0.4,0,0.6c0,0.5,0.1,1,0.2,1.6c0.4,1.9,1.5,3.6,3.1,4.8c3.8,3,9.3,2.3,12.2-1.5
				c0-0.1,0.1-0.1,0.1-0.2c2.3-3.1,2.3-7.3,0-10.4c-2.8-3.9-8.3-4.7-12.2-1.9c-0.1,0-0.1,0.1-0.2,0.2c-1.6,1.2-2.6,2.9-3.1,4.8
				c-0.1,0.5-0.2,1-0.2,1.6C77.3,58,77.3,58.1,77.4,58.3z"/>
			<path class="st3" d="M94.5,58.6c0.1,0.2,1.2-0.4,2.5,0.1s1.9,1.4,2.1,1.3s0-0.4-0.2-0.8C98,58,96.5,57.5,95.1,58
				C94.6,58.2,94.4,58.5,94.5,58.6z"/>
			<path class="st3" d="M65.6,56c0,0.2,2.8,0.3,6.2,0.3c3.4,0,6.2-0.2,6.2-0.4s-2.8-0.3-6.2-0.3S65.6,55.8,65.6,56z"/>
			<path class="st0" d="M120,32.4c0,0.3,0,0.6-0.1,0.8c-0.2,0.7-0.7,1.4-1.3,1.9c-0.9,0.7-2,1.2-3.2,1.3c-1.4,0.1-2.8,0-4.2-0.2
				c-2.5-0.4-5-0.9-7.4-1.5c-0.9-0.2-1.7-0.5-2.2-0.6l-0.6-0.2l-0.2-0.1c0,0,0.1,0,0.2,0l0.6,0.1l2.2,0.6c1.9,0.4,4.5,1,7.4,1.4
				c1.4,0.3,2.7,0.3,4.1,0.2c1.1-0.1,2.2-0.5,3.1-1.2c0.6-0.5,1.1-1.1,1.3-1.8C120,32.7,120,32.4,120,32.4z"/>
			<path class="st0" d="M121.9,34.4c-0.1,0.8-0.4,1.6-0.8,2.4c-1.8,3.8-5.7,6.1-9.9,5.9c-0.8,0-1.7-0.2-2.5-0.5
				c0.2,0,0.4,0.1,0.7,0.1c0.6,0.1,1.2,0.2,1.8,0.2c4.1,0.1,7.9-2.1,9.7-5.8c0.3-0.5,0.5-1.1,0.7-1.7
				C121.8,34.8,121.9,34.6,121.9,34.4z"/>
		</g>
	</g>
</g>
</svg>
