<svg xmlns="http://www.w3.org/2000/svg" version="1.1" xmlns:xlink="http://www.w3.org/1999/xlink" width="512" height="512" x="0" y="0" viewBox="0 0 176 176" style="enable-background:new 0 0 512 512" xml:space="preserve" class=""><g><g data-name="Layer 2"><rect width="176" height="176" fill="#ffffff" rx="24" opacity="1" data-original="#39cd00" class=""></rect><path fill="#1f1f1f" d="M143 82a28.7 28.7 0 0 1-.43 3.33 36.77 36.77 0 0 1-4.21 12c-1 1.78-5.81 8.54-7.28 10.32-8.13 9.79-21.75 21.09-44.51 32.08a3 3 0 0 1-4.29-3l1.15-10.33a3 3 0 0 0-2.65-3.31A63.94 63.94 0 0 1 59 116.88c-15.6-7.71-26-21.48-26-37.17C33 55.55 57.62 36 88 36c15.26 0 29.06 5 39 12.93 9.31 7.45 15.27 17.56 15.91 28.78A40 40 0 0 1 143 82z" opacity="1" data-original="#ffffff" class=""></path><g fill="#00c200"><path d="M72.84 89.39a2.76 2.76 0 0 1 .83 2 2.81 2.81 0 0 1-2.81 2.82H59.61a2.83 2.83 0 0 1-2.82-2.82V70.14a2.78 2.78 0 0 1 .83-2 2.81 2.81 0 0 1 4.8 2v18.43h8.44a2.75 2.75 0 0 1 1.98.82zM82 69.53V92a2.21 2.21 0 0 1-2.2 2.2h-1.26a2.2 2.2 0 0 1-2.2-2.2V69.53a2.2 2.2 0 0 1 2.2-2.2h1.23a2.21 2.21 0 0 1 2.23 2.2zM108.12 70.14v21.13a2.93 2.93 0 0 1-2.83 2.93 2.84 2.84 0 0 1-1.91-.78c-.1-.08-3.88-5-7.09-9.14-2.4-3.09-4.48-5.79-4.48-5.79v12.89a2.81 2.81 0 0 1-4.71 2.08 2.8 2.8 0 0 1-.92-2.08V70.26a2.9 2.9 0 0 1 2.71-2.93 2.84 2.84 0 0 1 2.21 1c.12.14 5.93 7.7 9.2 12 1.3 1.68 2.2 2.86 2.2 2.86v-13a2.83 2.83 0 0 1 2.81-2.81 2.81 2.81 0 0 1 2.81 2.76zM118 83.57v5h8.43a2.82 2.82 0 1 1 0 5.63h-11.28a2.82 2.82 0 0 1-2.81-2.82V70.14a2.82 2.82 0 0 1 2.81-2.81h11.25a2.82 2.82 0 1 1 0 5.63H118v5h8.43a2.81 2.81 0 1 1 0 5.62z" fill="#ffffff" opacity="1" data-original="#00c200" class=""></path></g></g></g></svg>