<?xml version="1.0" encoding="utf-8"?>
<!-- Generator: Adobe Illustrator 27.0.0, SVG Export Plug-In . SVG Version: 6.00 Build 0)  -->
<svg version="1.1" id="圖層_1" xmlns="http://www.w3.org/2000/svg" xmlns:xlink="http://www.w3.org/1999/xlink" x="0px" y="0px"
	 viewBox="0 0 64 64" style="enable-background:new 0 0 64 64;" xml:space="preserve">
<style type="text/css">
	.st0{fill:#FFFFFF;}
</style>
<g>
	<path class="st0" d="M2.8,64c-0.5-0.3-1.1-0.5-1.6-0.9C0.4,62.6,0,61.7,0,60.8c0-3-0.1-6.1,0.1-9.1C0.5,45.9,2.9,41,7,36.8
		c6.9-6.9,17.4-9,26.4-5.1c0.1,0,0.2,0.1,0.4,0.2c-0.1,0.1-0.2,0.1-0.3,0.2c-1.1,0.5-2,1.3-2.6,2.4c-0.7,1.2-1.4,2.4-2.1,3.6
		c-1.5,2.7-0.9,5.7,1.6,7.5c1.3,0.9,1.3,1.3,0,2.2c-2.5,1.8-3.1,4.8-1.5,7.5c0.7,1.2,1.4,2.4,2.1,3.6c1.5,2.6,4.4,3.6,7.2,2.4
		c0.2-0.1,0.5-0.2,0.7-0.3c0.6-0.2,1,0,1.1,0.6c0.1,0.8,0.3,1.6,0.5,2.4C27.8,64,15.3,64,2.8,64z"/>
	<path class="st0" d="M44.9,64c-1-0.5-1.5-1.3-1.6-2.4c0-0.8-0.2-1.6-0.3-2.4c0-0.2-0.2-0.4-0.4-0.5c-0.9-0.6-1.9-1.1-2.8-1.6
		C39.6,57,39.3,57,39.2,57c-0.9,0.3-1.7,0.7-2.6,1.1c-1.2,0.5-2.1,0.2-2.8-0.9c-0.7-1.2-1.4-2.4-2.1-3.7c-0.6-1.1-0.4-2.1,0.6-2.8
		c0.7-0.6,1.5-1.1,2.2-1.7c0.2-0.1,0.3-0.5,0.3-0.7c0-1,0-2,0-3c0-0.5-0.1-0.8-0.5-1c-0.7-0.5-1.3-1-2-1.5c-1-0.8-1.2-1.8-0.6-2.9
		c0.7-1.2,1.4-2.4,2.1-3.6c0.7-1.1,1.6-1.4,2.8-0.9c0.8,0.3,1.7,0.7,2.5,1.1c0.2,0.1,0.5,0,0.7-0.1c0.9-0.5,1.8-1,2.7-1.6
		c0.2-0.1,0.4-0.4,0.4-0.6c0.2-0.9,0.2-1.9,0.4-2.8c0.1-1.2,0.9-1.9,2.1-1.9c1.4,0,2.8,0,4.2,0c1.4,0,2.1,0.7,2.3,2
		c0.1,0.8,0.2,1.7,0.3,2.5c0,0.4,0.2,0.6,0.5,0.7c0.9,0.5,1.8,1,2.7,1.5c0.2,0.1,0.5,0.2,0.7,0.1c0.9-0.3,1.7-0.7,2.5-1.1
		c1.2-0.5,2.2-0.2,2.8,0.9c0.8,1.4,1.6,2.8,2.4,4.3c0,0.3,0,0.7,0,1c-0.5,0.5-1,1.1-1.5,1.6c-0.5,0.5-1.1,0.8-1.7,1.3
		c-0.2,0.1-0.3,0.4-0.3,0.6c0,0.9,0.2,1.8,0,2.7c-0.1,0.8,0.2,1.2,0.8,1.6c1,0.7,2.1,1.3,2.7,2.5c0,0.3,0,0.7,0,1
		c-0.8,1.4-1.6,2.8-2.4,4.2c-0.7,1.2-1.6,1.5-3,1c-0.6-0.2-1.2-0.4-1.7-0.7c-0.8-0.4-1.4-0.4-2,0.2c-0.1,0.1-0.3,0.2-0.5,0.3
		c-0.7,0.4-1.6,0.7-2,1.3c-0.4,0.6-0.3,1.6-0.4,2.4c-0.1,1.2-0.6,2-1.7,2.4C48.5,64,46.7,64,44.9,64z M52.5,46.7
		c0-2.7-2.2-4.9-4.9-4.9c-2.7,0-4.8,2.2-4.9,4.9c0,2.7,2.2,4.9,4.9,4.9C50.4,51.6,52.5,49.4,52.5,46.7z"/>
	<path class="st0" d="M23.9,0C31.1,0,37,5.9,37,13.1c0,7.2-5.9,13.1-13.1,13.1c-7.2,0-13.1-5.9-13.1-13.1C10.8,5.9,16.6,0,23.9,0z"
		/>
</g>
</svg>
