<?xml version="1.0" encoding="utf-8"?>
<!-- Generator: Adobe Illustrator 27.0.0, SVG Export Plug-In . SVG Version: 6.00 Build 0)  -->
<svg version="1.1" id="圖層_1" xmlns="http://www.w3.org/2000/svg" xmlns:xlink="http://www.w3.org/1999/xlink" x="0px" y="0px"
	 viewBox="0 0 64 64" style="enable-background:new 0 0 64 64;" xml:space="preserve">
<style type="text/css">
	.st0{fill:#df5353;}
</style>
<g>
	<path class="st0" d="M41.2,0c1.1,0.4,1.4,1.2,1.4,2.4c-0.1,1.2,0,2.4,0,3.7c-7.1,0-14.1,0-21.2,0c0-0.6,0-1.1,0-1.7
		c0-0.7,0-1.4,0-2.1c-0.1-1.1,0.3-1.9,1.4-2.4C28.9,0,35.1,0,41.2,0z"/>
	<path class="st0" d="M10.6,21.7c14.3,0,28.5,0,42.8,0c-0.1,1.1-0.1,2.1-0.2,3.1c-0.3,3.8-0.6,7.5-0.8,11.3c-0.3,4.3-0.6,8.6-1,13
		c-0.3,3.7-0.5,7.4-0.8,11c0,0.5-0.1,1.1-0.1,1.6c-0.1,1.3-1.2,2.2-2.5,2.3c-0.2,0-0.4,0-0.6,0c-10.3,0-20.5,0-30.8,0
		c-2.2,0-3.1-1-3.3-3.1c-0.3-4.6-0.6-9.1-0.9-13.7c-0.3-4.6-0.6-9.1-0.9-13.7c-0.2-3.7-0.5-7.4-0.8-11.1
		C10.6,22.1,10.6,21.9,10.6,21.7z M27.4,41.9c0-4.2,0-8.3,0-12.5c0-1-0.6-1.8-1.5-1.9c-1.2-0.2-2.2,0.6-2.2,2c0,8.3,0,16.5,0,24.8
		c0,0.1,0,0.3,0,0.4c0.1,1,1,1.7,1.9,1.6c1-0.1,1.7-0.8,1.7-2C27.4,50.2,27.4,46.1,27.4,41.9z M36.6,41.9c0,0.7,0,1.5,0,2.2
		c0,3.5,0,6.9,0,10.4c0,1.4,1.2,2.2,2.4,1.8c0.8-0.3,1.2-1,1.2-2c0-8.2,0-16.4,0-24.7c0-0.1,0-0.3,0-0.4c-0.1-1-0.9-1.7-1.8-1.7
		c-1.1,0-1.8,0.8-1.8,2C36.6,33.5,36.6,37.7,36.6,41.9z"/>
	<path class="st0" d="M6.4,18c0-1.6-0.1-3.1,0-4.6c0.2-2.1,1.8-3.5,3.9-3.6c0.1,0,0.2,0,0.3,0c14.2,0,28.4,0,42.6,0
		c2,0,3.7,1.2,4.1,3c0.2,0.6,0.2,1.3,0.2,1.9c0,1.1,0,2.1,0,3.2C40.5,18,23.5,18,6.4,18z"/>
</g>
</svg>
