<?xml version="1.0" encoding="utf-8"?>
<!-- Generator: Adobe Illustrator 27.0.0, SVG Export Plug-In . SVG Version: 6.00 Build 0)  -->
<svg version="1.1" id="圖層_1" xmlns="http://www.w3.org/2000/svg" xmlns:xlink="http://www.w3.org/1999/xlink" x="0px" y="0px"
	 viewBox="0 0 256 256" style="enable-background:new 0 0 256 256;" xml:space="preserve">
<style type="text/css">
	.st0{fill:#FFFFFF;}
</style>
<g>
	<path class="st0" d="M190.9,80.4c-1.5-3.8-3.2-6.5-6-9.3c-2.8-2.8-5.5-4.6-9.3-6c-2.8-1.1-7.1-2.4-15-2.8
		c-8.5-0.4-11.1-0.5-32.6-0.5c-21.5,0-24.1,0.1-32.6,0.5c-7.9,0.4-12.1,1.7-15,2.8c-3.8,1.5-6.5,3.2-9.3,6c-2.8,2.8-4.6,5.5-6,9.3
		c-1.1,2.8-2.4,7.1-2.8,15c-0.4,8.5-0.5,11.1-0.5,32.6s0.1,24.1,0.5,32.6c0.4,7.9,1.7,12.1,2.8,15c1.5,3.8,3.2,6.5,6,9.3
		c2.8,2.8,5.5,4.6,9.3,6c2.8,1.1,7.1,2.4,15,2.8c8.5,0.4,11.1,0.5,32.6,0.5c21.6,0,24.1-0.1,32.6-0.5c7.9-0.4,12.1-1.7,15-2.8
		c3.8-1.5,6.5-3.2,9.3-6c2.8-2.8,4.6-5.5,6-9.3c1.1-2.8,2.4-7.1,2.8-15c0.4-8.5,0.5-11.1,0.5-32.6c0-21.6-0.1-24.1-0.5-32.6
		C193.3,87.5,192,83.2,190.9,80.4z M128,169.4c-22.9,0-41.4-18.6-41.4-41.4s18.6-41.4,41.4-41.4s41.4,18.6,41.4,41.4
		S150.8,169.4,128,169.4z M171,94.6c-5.4,0-9.7-4.3-9.7-9.7c0-5.3,4.3-9.7,9.7-9.7s9.7,4.3,9.7,9.7C180.7,90.3,176.4,94.6,171,94.6z
		"/>
	<path class="st0" d="M203.6,0H52.4C23.6,0,0,23.6,0,52.4v151.2C0,232.4,23.6,256,52.4,256h75.9h50.9h24.4
		c28.8,0,52.4-23.6,52.4-52.4V52.4C256,23.6,232.4,0,203.6,0z M208.2,161.3c-0.4,8.6-1.8,14.5-3.7,19.6c-2.1,5.3-4.8,9.8-9.3,14.3
		c-4.5,4.5-9,7.2-14.3,9.3c-5.1,2-11,3.4-19.6,3.7c-8.6,0.4-11.3,0.5-33.3,0.5c-21.9,0-24.7-0.1-33.3-0.5
		c-8.6-0.4-14.5-1.8-19.6-3.7c-5.3-2.1-9.8-4.8-14.3-9.3c-4.5-4.5-7.2-9-9.3-14.3c-2-5.1-3.4-11-3.7-19.6
		c-0.4-8.6-0.5-11.4-0.5-33.3c0-21.9,0.1-24.7,0.5-33.3c0.4-8.6,1.8-14.5,3.7-19.6c2.1-5.3,4.8-9.8,9.3-14.3c4.5-4.5,9-7.2,14.3-9.3
		c5.1-2,11-3.4,19.6-3.7c8.6-0.4,11.4-0.5,33.3-0.5c21.9,0,24.7,0.1,33.3,0.5c8.6,0.4,14.5,1.8,19.6,3.7c5.3,2.1,9.8,4.8,14.3,9.3
		c4.5,4.5,7.2,9,9.3,14.3c2,5.1,3.4,11,3.7,19.6c0.4,8.6,0.5,11.4,0.5,33.3S208.6,152.7,208.2,161.3z"/>
	<path class="st0" d="M128,101.1c-14.9,0-26.9,12-26.9,26.9s12,26.9,26.9,26.9s26.9-12,26.9-26.9S142.8,101.1,128,101.1z"/>
</g>
</svg>
