<?xml version="1.0" encoding="utf-8"?>
<!-- Generator: Adobe Illustrator 27.0.0, SVG Export Plug-In . SVG Version: 6.00 Build 0)  -->
<svg version="1.1" id="圖層_1" xmlns="http://www.w3.org/2000/svg" xmlns:xlink="http://www.w3.org/1999/xlink" x="0px" y="0px"
	 viewBox="0 0 256 256" style="enable-background:new 0 0 256 256;" xml:space="preserve">
<style type="text/css">
	.st0{fill:#FFFFFF;}
</style>
<path class="st0" d="M203.6,0H52.4C23.6,0,0,23.6,0,52.4v151.2C0,232.4,23.6,256,52.4,256h75.9h50.9h24.4
	c28.8,0,52.4-23.6,52.4-52.4V52.4C256,23.6,232.4,0,203.6,0z M197.4,92.4c0.1,1.5,0.1,3.1,0.1,4.6c0,47.3-36,101.9-101.9,101.9l0,0
	c-20.2,0-39-5.9-54.9-16.1c2.8,0.3,5.7,0.5,8.5,0.5c16.8,0,32.2-5.7,44.5-15.3c-15.7-0.3-28.9-10.6-33.4-24.9
	c2.2,0.4,4.4,0.6,6.7,0.6c3.2,0,6.4-0.4,9.4-1.3c-16.4-3.3-28.7-17.8-28.7-35.1c0-0.2,0-0.3,0-0.5c5,2.8,10.5,4.3,16.2,4.5
	C54.4,105,48,94,48,81.6c0-6.3,1.7-12.5,4.8-18c17.7,21.7,44,35.9,73.8,37.4c-0.6-2.6-0.9-5.4-0.9-8.2c0-19.8,16-35.8,35.8-35.8
	c10.3,0,19.6,4.4,26.1,11.3c8-1.6,15.7-4.5,22.7-8.7c-2.7,8.4-8.4,15.4-15.7,19.8c7.2-0.9,14.1-2.8,20.6-5.6
	C210.5,81,204.4,87.3,197.4,92.4z"/>
</svg>
