<?xml version="1.0" encoding="utf-8"?>
<!-- Generator: Adobe Illustrator 27.0.0, SVG Export Plug-In . SVG Version: 6.00 Build 0)  -->
<svg version="1.1" id="圖層_1" xmlns="http://www.w3.org/2000/svg" xmlns:xlink="http://www.w3.org/1999/xlink" x="0px" y="0px"
	 viewBox="0 0 256 256" style="enable-background:new 0 0 256 256;" xml:space="preserve">
<style type="text/css">
	.st0{fill:#FFFFFF;}
</style>
<g>
	<path class="st0" d="M203.6,0H52.4C23.6,0,0,23.6,0,52.4v151.2C0,232.4,23.6,256,52.4,256h75.9h50.9h24.4
		c28.8,0,52.4-23.6,52.4-52.4V52.4C256,23.6,232.4,0,203.6,0z M208.8,144.8c-0.9,14.5-1.7,19.7-3.9,25c-1.3,3.4-2.5,5.1-4.4,7.1
		c-3.1,3-7,5-11.3,5.8c-26.7,2-49.4,2.4-75.1,2c-30.9-0.6-41.4-1.1-47.9-2.4c-4.4-0.9-8.2-2.9-11-5.7c-2.2-2.2-3.9-5.5-5.2-10
		c-1.1-3.8-1.6-7-2.2-14.7c-1-17.5-1.2-31.8,0-47.7c1-8.8,1.5-19.3,8.1-25.4c3.1-2.9,6.7-4.7,10.8-5.5c6.3-1.2,33.4-2.2,61.4-2.2
		c27.9,0,55,1,61.4,2.2c5.1,1,9.8,3.8,12.6,7.5c6,9.5,6.1,21.2,6.7,30.4C209.1,115.6,209.1,140.4,208.8,144.8z"/>
	<path class="st0" d="M111.4,103.5V149c15.3-8.3,31.3-15.9,43.6-22.7h0C140.1,118.4,125.9,111.1,111.4,103.5z"/>
</g>
</svg>
