<?xml version="1.0" encoding="utf-8"?>
<!-- Generator: Adobe Illustrator 27.0.0, SVG Export Plug-In . SVG Version: 6.00 Build 0)  -->
<svg version="1.1" id="圖層_1" xmlns="http://www.w3.org/2000/svg" xmlns:xlink="http://www.w3.org/1999/xlink" x="0px" y="0px"
	 viewBox="0 0 256 256" style="enable-background:new 0 0 256 256;" xml:space="preserve">
<style type="text/css">
	.st0{fill:#FFFFFF;}
</style>
<g>
	<path class="st0" d="M158.8,116.4c-9.3,0-16.6,8.4-16.6,18.6c0,10.3,7.5,18.6,16.6,18.6c9.3,0,16.6-8.4,16.6-18.6
		C175.6,124.8,168.1,116.4,158.8,116.4z"/>
	<path class="st0" d="M97.3,116.4c-9.3,0-16.6,8.4-16.6,18.6c0,10.3,7.5,18.6,16.6,18.6c9.3,0,16.6-8.4,16.6-18.6
		C114.1,124.8,106.6,116.4,97.3,116.4z"/>
	<path class="st0" d="M203.6,0H52.4C23.6,0,0,23.6,0,52.4v151.2C0,232.4,23.6,256,52.4,256h151.2c28.8,0,52.4-23.6,52.4-52.4V52.4
		C256,23.6,232.4,0,203.6,0z M219.7,174.7c0,0.2-0.1,0.3-0.2,0.4c-15.8,11.6-31.2,18.7-46.3,23.4c-0.2,0.1-0.5,0-0.7-0.2
		c-3.5-4.9-6.7-10-9.4-15.4c-0.2-0.3,0-0.7,0.3-0.8c5-1.9,9.8-4.2,14.4-6.9c0.4-0.2,0.4-0.7,0.1-1c-1-0.7-1.9-1.5-2.9-2.3
		c-0.2-0.1-0.4-0.2-0.6-0.1c-29.9,13.8-62.7,13.8-93,0c-0.2-0.1-0.4-0.1-0.6,0.1c-0.9,0.8-1.9,1.5-2.9,2.2c-0.3,0.2-0.3,0.8,0.1,1
		c4.6,2.6,9.4,5,14.4,6.9c0.3,0.1,0.5,0.5,0.3,0.8c-2.7,5.4-5.9,10.5-9.5,15.4c-0.2,0.2-0.4,0.3-0.7,0.2
		c-15-4.7-30.4-11.7-46.2-23.4c-0.1-0.1-0.2-0.3-0.2-0.4c-3.2-34.5,3.3-69.5,27.3-105.3c0.1-0.1,0.1-0.2,0.2-0.2
		c11.8-5.4,24.5-9.4,37.7-11.7c0.2,0,0.5,0.1,0.6,0.3c1.6,2.9,3.5,6.6,4.8,9.6c13.9-2.1,28.1-2.1,42.3,0c1.3-3,3.1-6.7,4.7-9.6
		c0.1-0.2,0.4-0.3,0.6-0.3c13.2,2.3,25.9,6.3,37.7,11.7c0.1,0,0.2,0.1,0.2,0.2C213.3,100.1,223.6,134.8,219.7,174.7z"/>
</g>
</svg>
